<?xml version="1.0" encoding="UTF-8" standalone="no"?><svg xmlns="http://www.w3.org/2000/svg" xmlns:xlink="http://www.w3.org/1999/xlink" data-name="Layer 2" fill="#000000" height="298.9" preserveAspectRatio="xMidYMid meet" version="1" viewBox="-0.1 -0.1 323.8 298.9" width="323.8" zoomAndPan="magnify"><g id="change1_1"><path d="M225.582,113.3a1.5,1.5,0,0,1-.777-.217L161.457,74.746,99.22,113.075a1.5,1.5,0,0,1-1.493.046L67.089,96.781a1.5,1.5,0,0,1-.052-2.619L131,56.684,67.067,21.194a1.5,1.5,0,0,1-.034-2.6L98.182.208A1.5,1.5,0,0,1,99.7.2l61.772,35.829L224.024,1.492a1.5,1.5,0,0,1,1.461.006l32.5,18.305a1.5,1.5,0,0,1,.018,2.6L197.424,57.664l60.568,34.962a1.5,1.5,0,0,1-.013,2.6L226.319,113.1A1.5,1.5,0,0,1,225.582,113.3ZM70.867,95.4l27.512,14.674,62.285-38.357a1.5,1.5,0,0,1,1.562-.006l63.382,38.354,28.608-16.15L193.683,58.969a1.5,1.5,0,0,1,0-2.6l60.549-35.241L224.742,4.523,162.174,39.068a1.494,1.494,0,0,1-1.477-.016L98.95,3.238,70.814,19.843l63.943,35.494a1.5,1.5,0,0,1,.03,2.606Z" fill="#ffffff"/></g><g id="change1_2"><path d="M258.072,171.063a1.5,1.5,0,0,1-1.5-1.491l-.415-74.611a1.5,1.5,0,0,1-.012-2.06l-.4-71.782a1.5,1.5,0,0,1,1.491-1.508h.009a1.5,1.5,0,0,1,1.5,1.491l.4,72.205,63.835,37.624a1.5,1.5,0,0,1-.007,2.588l-64.148,37.34A1.5,1.5,0,0,1,258.072,171.063ZM259.167,96.8l.39,70.162,59.695-34.747Z" fill="#ffffff"/></g><g id="change1_3"><path d="M227.625,298.787a1.5,1.5,0,0,1-1.5-1.5V225.218l-62.56,36.474a1.5,1.5,0,0,1-2.256-1.284l-.289-36.642a1.5,1.5,0,0,1,.752-1.311l62.436-35.949-.126-74.706a1.5,1.5,0,0,1,1.5-1.5h0a1.5,1.5,0,0,1,1.5,1.5l.127,75.574a1.5,1.5,0,0,1-.751,1.3l-62.431,35.946.262,33.18,62.58-36.488a1.5,1.5,0,0,1,2.256,1.3v72.1l26.621-15.145V205.755a1.5,1.5,0,0,1,.77-1.311l64.2-35.763V132.223a1.5,1.5,0,0,1,3,0v37.34a1.5,1.5,0,0,1-.77,1.311l-64.2,35.762v73.8a1.5,1.5,0,0,1-.758,1.3l-29.621,16.852A1.514,1.514,0,0,1,227.625,298.787Z" fill="#ffffff"/></g><g id="change1_4"><path d="M225.708,188.872a1.5,1.5,0,0,1-.76-.208l-63.19-37.277a1.5,1.5,0,0,1-.738-1.271L159.95,73.01a1.5,1.5,0,1,1,3-.042l1.058,76.264,62.463,36.848a1.5,1.5,0,0,1-.763,2.792Z" fill="#ffffff"/></g><g id="change1_5"><path d="M162.519,225.255a1.488,1.488,0,0,1-.739-.2L97.692,188.677a1.5,1.5,0,0,1-.013-2.6L161.766,148.8a1.5,1.5,0,1,1,1.508,2.593l-61.831,35.964L163.26,222.45a1.5,1.5,0,0,1-.741,2.805Z" fill="#ffffff"/></g><g id="change1_6"><path d="M98.433,188.872a1.5,1.5,0,0,1-1.5-1.5V111.8a1.5,1.5,0,0,1,3,0v75.574A1.5,1.5,0,0,1,98.433,188.872Z" fill="#ffffff"/></g><g id="change1_7"><path d="M227.624,298.787a1.512,1.512,0,0,1-.742-.2l-64.07-36.467L99.179,298.589a1.5,1.5,0,0,1-2.246-1.3V223.755a1.5,1.5,0,0,1,2.242-1.3l64.354,36.629.047.027,64.791,36.876a1.5,1.5,0,0,1-.743,2.8ZM99.933,226.335V294.7l59.852-34.3Z" fill="#ffffff"/></g><g id="change1_8"><path d="M98.432,298.787a1.5,1.5,0,0,1-.709-.179L65.151,281.1a1.5,1.5,0,0,1-.79-1.329l.4-74.358-64-36.266A1.5,1.5,0,0,1,0,167.841l.04-37.35a1.5,1.5,0,0,1,2.288-1.274L65.292,168.1l1-148.226a1.5,1.5,0,0,1,1.5-1.489h.01a1.5,1.5,0,0,1,1.49,1.51L68.273,170.786a1.5,1.5,0,0,1-2.288,1.267L3.037,133.18,3,166.969l64,36.268a1.5,1.5,0,0,1,.761,1.313l-.4,74.335,31.777,17.081a1.5,1.5,0,0,1-.711,2.821Z" fill="#ffffff"/></g><g id="change1_9"><path d="M1.541,131.993a1.5,1.5,0,0,1-.7-2.826L67.094,94.131a1.5,1.5,0,1,1,1.4,2.652L2.241,131.819A1.5,1.5,0,0,1,1.541,131.993Z" fill="#ffffff"/></g></svg>